<?xml version="1.0" encoding="UTF-8"?>
<svg width="48px" height="48px" viewBox="0 0 40 50" version="1.1" xmlns="http://www.w3.org/2000/svg" xmlns:xlink="http://www.w3.org/1999/xlink">
    <!-- Generator: Sketch 61.2 (89653) - https://sketch.com -->
    <title>Care_icon_web_blk</title>
    <desc>Created with Sketch.</desc>
    <g id="Care_icon_web_blk" stroke="none" stroke-width="1" fill="none" fill-rule="evenodd">
        <path d="M41.6645709,30.5267026 L41.7005363,30.4158355 L41.8606927,30.2553562 C43.7046186,29.6278265 44.9662635,27.9241527 45,26.0006192 L45,25.8349608 C44.956312,23.3390249 42.8806316,21.3274098 40.3469736,21.3274098 C37.7819507,21.3274098 35.6932445,23.386522 35.6932445,25.9152978 C35.6932445,27.9584411 37.0712674,29.7590898 39.1277707,30.4177562 L39.2616309,30.5994258 L39.2616309,32.765897 C39.2616309,37.1022978 35.6829026,40.6302957 31.2839374,40.6302957 C26.8856935,40.6302957 23.3092278,37.1030095 23.3093459,32.759229 L23.3945166,30.354663 L23.5637939,30.1718287 C29.1123815,29.4800326 33.307357,24.7954542 33.307357,19.2623821 L33.3073625,10.6767473 L33.3072567,10.6634827 L33.3070739,10.6486808 L33.3059554,10.5979025 C33.3067203,10.5732669 33.3067203,10.5732669 33.3070132,10.560397 C33.3071499,10.5518757 33.3071499,10.5518757 33.3072497,10.5395007 L33.307357,10.5236138 C33.307357,9.68699027 32.7754271,9.01889055 32.1429644,9 L30.3983751,9 C29.7575948,9.01888591 29.2252919,9.68647832 29.2252919,10.5236138 C29.2252919,11.3750455 29.7746525,12.0476598 30.4896026,12.0579902 L30.7735618,12.1540291 L30.9044169,12.3347094 L30.9044169,19.2623821 C30.9044169,24.019794 26.9808629,27.8892174 22.1565698,27.8892174 C17.3322762,27.8892174 13.4087261,24.0197959 13.4087442,19.2597706 L13.5061301,12.236059 L13.6998018,12.0476598 L13.8806028,12.0476598 C14.5327181,12.0476598 15.0820787,11.3750455 15.0820787,10.5236138 C15.0820787,9.68699027 14.5501489,9.01889055 13.9176862,9 L12.1730968,9 C11.5323166,9.01888591 11,9.68647832 11,10.5213441 L11.0004005,10.5532536 C11.000761,10.5766794 11.000761,10.5766794 11.0012513,10.5932936 C11.0023914,10.6203813 11.0023914,10.6203813 11.0057849,10.6842926 L11.0057849,19.2623821 C11.0057849,24.7615519 15.1479871,29.4272071 20.7413551,30.2552067 L20.9062925,30.4441012 L20.9062925,32.765897 C20.9062925,38.4081277 25.5625698,43 31.2839374,43 C37.0076973,43 41.6645709,38.408711 41.6645709,32.765897 L41.6645709,30.5267026 Z M40.5,23 C41.8780613,23 43,24.1215667 43,25.4991712 C43,26.878061 41.8784335,28 40.5,28 C39.1197255,28 38,26.8795379 38,25.4991712 C38,24.1200907 39.1200974,23 40.5,23 Z" id="care" stroke="#000000" stroke-width="0.7" fill="#000000" fill-rule="nonzero"></path>
    </g>
</svg>