<?xml version="1.0" encoding="UTF-8"?>
<svg width="24px" height="24px" viewBox="0 0 50 60" version="1.1" xmlns="http://www.w3.org/2000/svg" xmlns:xlink="http://www.w3.org/1999/xlink">
    <title>store-icon</title>
    <g id="Page-1" stroke="none" stroke-width="1" fill="none" fill-rule="evenodd">
        <g id="Care-assets" transform="translate(-1320.000000, -1294.000000)" fill="#121212" fill-rule="nonzero">
            <g id="store-icon-orders" transform="translate(1306.000000, 1285.000000)">
                <g id="Group-162" transform="translate(13.090908, 8.945455)">
                    <path d="M22.354176,0.48 C27.8889434,0.48 32.2566243,4.178259 32.610623,9.57148634 C32.6817479,10.6550846 32.7276292,11.8595815 32.7483838,13.1855447 L34.12815,13.1887453 C36.0854906,13.1911823 37.7797386,14.5058734 38.2888279,16.3652345 L38.3701685,16.7200601 L43.960061,46.824077 C44.395638,49.1698496 42.8471185,51.4245789 40.5013459,51.8601558 L40.1086723,51.9145698 L39.712664,51.9327589 L5.23129257,51.9327589 C2.84542245,51.9327589 0.911292574,49.998629 0.911292574,47.6127589 L0.925899963,47.2578019 L0.969623344,46.9052454 L6.05094582,16.2981755 C6.22461201,15.2521067 7.21340263,14.5448846 8.25947149,14.7185507 C9.22507351,14.878858 9.90195403,15.7337091 9.86378271,16.6870376 L9.83909625,16.9270764 L4.75777377,47.5341463 C4.75346029,47.5601283 4.75129257,47.5864212 4.75129257,47.6127589 C4.75129257,47.8336728 4.90053099,48.0197302 5.10368956,48.0756128 L5.23129257,48.0927589 L39.712664,48.0927589 C39.7420599,48.0927589 39.7713935,48.0900585 39.8002953,48.0846919 C40.0174965,48.0443607 40.1731812,47.8636628 40.191035,47.6537163 L40.184597,47.5251276 L34.5947045,17.4211107 C34.5609555,17.2393574 34.4274382,17.0974778 34.2570709,17.0478488 L34.1233691,17.0287424 L32.7402926,17.026 L32.7185332,18.3265762 C32.7103516,18.6755885 32.7009962,19.0303377 32.6904681,19.3908296 L32.6132364,21.6227385 C32.5712004,22.6822917 31.6781859,23.5071523 30.6186327,23.4651163 C29.5590795,23.4230802 28.7342189,22.5300657 28.7762549,21.4705125 L28.8515936,19.2958432 L28.899597,17.2599371 C28.9225001,15.9489824 28.9272178,14.7307216 28.9138261,13.6055244 L28.8801661,11.9875727 C28.8565546,11.2135419 28.8227779,10.4919636 28.7788683,9.82299367 C28.5631912,6.53711812 25.9447525,4.32 22.354176,4.32 C19.0142183,4.32 16.3035453,6.57958965 16.0920354,9.34858857 L16.0787484,9.69724001 L16.0782926,13.185 L23.5764706,13.1858824 C24.6368573,13.1858824 25.4964706,14.0454956 25.4964706,15.1058824 C25.4964706,16.0847009 24.764019,16.8924461 23.8173113,17.0109228 L23.5764706,17.0258824 L16.0782926,17.025 L16.0787484,21.5466255 C16.0787484,22.6070122 15.2191351,23.4666542 14.1587484,23.4666542 C13.1799299,23.4666542 12.3721846,22.734174 12.2537079,21.7874662 L12.2387484,21.5466255 L12.2387484,9.69724001 C12.2387484,4.53051459 16.858383,0.48 22.354176,0.48 Z" id="store-icon"></path>
                </g>
            </g>
        </g>
    </g>
</svg>